<svg width="160" height="160" viewBox="0 0 160 160" fill="none" xmlns="http://www.w3.org/2000/svg"><path d="M52.738 88.24c-5.973 1.695-9.892 4.667-12.473 7.637 2.472-2.164 5.784-4.15 10.252-5.416 4.569-1.295 8.467-1.285 11.688-.664v-2.519c-2.748-.25-5.898-.05-9.467.962ZM39.992 67.067 17.81 72.911s.405.571 1.153 1.333l18.808-4.956s-.267 3.434-2.581 6.507c4.378-3.313 4.802-8.728 4.802-8.728Zm18.568 52.131C27.344 127.606 10.829 91.43 5.829 72.653 3.519 63.986 2.51 57.422 2.24 53.186c-.029-.44-.015-.81.016-1.15-1.62.097-2.395.94-2.237 3.372.269 4.233 1.277 10.797 3.587 19.467 4.998 18.774 21.516 54.95 52.732 46.542 6.794-1.83 11.899-5.164 15.73-9.42-3.531 3.19-7.952 5.702-13.51 7.201Zm5.866-74.27v2.22H76.67c-.251-.786-.504-1.494-.756-2.22H64.426Z" fill="#2D4552"/><path d="M79.406 63.224c5.507 1.564 8.42 5.424 9.958 8.84l6.14 1.744s-.838-11.957-11.653-15.029c-10.118-2.875-16.344 5.622-17.102 6.721 2.944-2.096 7.242-3.813 12.657-2.276Zm48.873 8.896c-10.127-2.888-16.351 5.626-17.097 6.71 2.945-2.094 7.241-3.811 12.654-2.267 5.498 1.566 8.408 5.422 9.952 8.84l6.148 1.75s-.851-11.959-11.657-15.033Zm-6.1 31.527L71.106 89.368s.552 2.804 2.674 6.433l43.002 12.022c3.54-2.048 5.397-4.176 5.397-4.176Zm-35.41 30.733c-40.44-10.842-35.55-62.369-29.007-86.785 2.694-10.063 5.464-17.542 7.761-22.555-1.37-.282-2.505.44-3.627 2.721-2.439 4.947-5.558 13.001-8.576 24.276-6.542 24.417-11.431 75.941 29.008 86.784 19.06 5.106 33.909-2.655 44.978-14.843-10.507 9.516-23.921 14.852-40.536 10.402Z" fill="#2D4552"/><path d="M64.425 107.123V96.725l-28.89 8.192S37.67 92.513 52.738 88.24c4.57-1.295 8.468-1.287 11.688-.665V44.927h14.466c-1.576-4.867-3.099-8.614-4.379-11.218-2.117-4.309-4.287-1.452-9.213 2.668-3.47 2.899-12.24 9.083-25.436 12.64-13.197 3.557-23.866 2.614-28.317 1.843-6.311-1.089-9.612-2.475-9.303 2.325.269 4.234 1.277 10.798 3.587 19.468 4.998 18.774 21.516 54.95 52.731 46.542 8.155-2.197 13.91-6.539 17.9-12.075H64.424v.003ZM17.808 72.91l22.184-5.843s-.647 8.534-8.963 10.726c-8.32 2.19-13.221-4.883-13.221-4.883Z" fill="#E2574C"/><path d="M147.915 45.42c-5.767 1.011-19.601 2.27-36.698-2.312-17.101-4.58-28.448-12.59-32.944-16.355-6.372-5.338-9.176-9.048-11.934-3.437-2.44 4.95-5.558 13.003-8.577 24.279-6.542 24.416-11.43 75.941 29.007 86.783 40.43 10.833 61.954-36.236 68.496-60.654 3.019-11.273 4.343-19.81 4.707-25.314.415-6.235-3.867-4.425-12.057-2.99Zm-81.248 20.2s6.373-9.911 17.181-6.839c10.816 3.072 11.653 15.03 11.653 15.03l-28.834-8.19Zm26.384 44.477c-19.011-5.569-21.943-20.729-21.943-20.729l51.071 14.279c0-.003-10.309 11.95-29.128 6.45Zm18.057-31.156s6.364-9.904 17.171-6.823c10.806 3.076 11.657 15.034 11.657 15.034l-28.828-8.21Z" fill="#2EAD33"/><path d="m54.33 99.588-18.793 5.327s2.041-11.63 15.886-16.24L40.781 48.737l-.92.28c-13.196 3.558-23.865 2.614-28.316 1.843-6.31-1.088-9.612-2.474-9.303 2.326.269 4.234 1.277 10.797 3.587 19.467 4.998 18.774 21.516 54.95 52.731 46.543l.92-.289-5.15-19.319ZM17.81 72.911l22.184-5.844s-.647 8.534-8.963 10.726c-8.319 2.19-13.221-4.882-13.221-4.882Z" fill="#D65348"/><path d="m93.909 110.306-.86-.209c-19.012-5.569-21.944-20.729-21.944-20.729l26.336 7.361 13.943-53.577-.169-.044c-17.102-4.58-28.448-12.59-32.944-16.355-6.373-5.338-9.176-9.048-11.935-3.437-2.436 4.95-5.555 13.003-8.574 24.279-6.542 24.416-11.43 75.941 29.007 86.783l.83.187 6.31-24.259ZM66.667 65.621s6.373-9.912 17.181-6.84c10.816 3.072 11.653 15.03 11.653 15.03l-28.834-8.19Z" fill="#1D8D22"/><path d="m55.288 99.314-5.04 1.431c1.19 6.712 3.289 13.154 6.583 18.845.573-.126 1.142-.235 1.726-.395 1.53-.413 2.95-.925 4.316-1.482-3.68-5.462-6.115-11.753-7.585-18.399ZM53.32 52.037c-2.59 9.666-4.907 23.58-4.27 37.537a29.132 29.132 0 0 1 3.688-1.337l.932-.209c-1.137-14.907 1.322-30.098 4.092-40.434a202 202 0 0 1 2.108-7.315 65.433 65.433 0 0 1-3.734 2.217c-.935 2.886-1.88 6.04-2.816 9.54Z" fill="#C04B41"/></svg>