<svg xmlns="http://www.w3.org/2000/svg" fill="none" viewBox="0 0 128 128"><circle cx="64" cy="64" r="64" fill="#FC521F"/><path fill="#fff" fill-rule="evenodd" d="m79.04 93.435-10.17-5.868L99.466 69.92a22.999 22.999 0 0 0 3.306-2.32c3.976 5.663 4.367 13.121.822 19.26-3.203 5.54-9.179 8.982-15.587 8.982-3.136 0-6.235-.832-8.967-2.406Zm-2.45 4.238a22.814 22.814 0 0 0 3.663 1.706c-2.92 6.271-9.186 10.335-16.284 10.335-9.908 0-17.974-8.057-17.974-17.958V56.458l15.524 8.957v22.151a2.45 2.45 0 0 0 1.224 2.12l13.847 7.987Zm-36.61-1.836a18.042 18.042 0 0 1-15.58-8.978 17.832 17.832 0 0 1-1.793-13.628 17.835 17.835 0 0 1 8.374-10.906l10.167-5.866.001 35.29c0 1.355.116 2.698.352 4.026-.506.042-1.014.062-1.52.062ZM79.543 52.22l-15.518 8.952-19.2-11.074a2.457 2.457 0 0 0-2.45 0l-13.844 7.988a22.393 22.393 0 0 0-3.31 2.317c-3.975-5.661-4.363-13.118-.821-19.259a18.053 18.053 0 0 1 15.586-8.985c3.132 0 6.232.835 8.967 2.41l30.59 17.65ZM63.969 18.286c9.913 0 17.973 8.057 17.973 17.962v11.733L51.356 30.337a22.732 22.732 0 0 0-3.668-1.71c2.92-6.274 9.188-10.34 16.281-10.34Zm39.626 22.861c4.952 8.577 2.002 19.582-6.582 24.532l-30.59 17.649V65.419l19.198-11.075a2.448 2.448 0 0 0 1.226-2.121V36.249c.002-1.35-.12-2.694-.352-4.018a17.351 17.351 0 0 1 1.516-.065c6.411 0 12.382 3.442 15.584 8.981Z" clip-rule="evenodd"/></svg>