<svg width="40" height="40" viewBox="0 0 40 40" fill="none" xmlns="http://www.w3.org/2000/svg">
<path d="M5.24056 36.8587L4.00144 3.84178C3.96052 2.75137 4.79661 1.82725 5.88567 1.75918L33.9689 0.0039847C35.0774 -0.0652987 36.0322 0.777181 36.1015 1.88571C36.1041 1.92748 36.1054 1.96932 36.1054 2.01116V37.9889C36.1054 39.0996 35.205 40 34.0943 40C34.0642 40 34.0341 39.9993 34.0041 39.998L7.16001 38.7923C6.11454 38.7454 5.27981 37.9045 5.24056 36.8587Z" fill="#FF4785"/>
<path fill-rule="evenodd" clip-rule="evenodd" d="M31.7611 0.140625L27.8961 0.382186L27.7076 4.91528C27.7047 4.98496 27.7262 5.05348 27.7683 5.10905C27.8685 5.24105 28.0566 5.26689 28.1886 5.16676L29.9495 3.83103L31.4368 5.00263C31.4925 5.04653 31.562 5.06926 31.6329 5.06679C31.7985 5.06101 31.928 4.92209 31.9222 4.7565L31.7611 0.140625ZM28.7535 15.3219C28.046 15.8715 22.7756 16.2465 22.7756 15.4641C22.887 12.4785 21.5504 12.3476 20.8078 12.3476C20.1023 12.3476 18.9142 12.5608 18.9142 14.1603C18.9142 15.7902 20.6505 16.7103 22.6885 17.7903C25.5837 19.3246 29.0877 21.1815 29.0877 25.8539C29.0877 30.3324 25.449 32.8062 20.8078 32.8062C16.018 32.8062 11.8323 30.8684 12.3051 24.15C12.4907 23.361 18.58 23.5485 18.58 24.15C18.5057 26.9223 19.1369 27.7377 20.7335 27.7377C21.9588 27.7377 22.5157 27.0624 22.5157 25.925C22.5157 24.2037 20.7066 23.188 18.6254 22.0195C15.8075 20.4374 12.4907 18.5753 12.4907 14.3025C12.4907 10.0373 15.424 7.19385 20.6592 7.19385C25.8945 7.19385 28.7535 9.99373 28.7535 15.3219Z" fill="white"/>
</svg>
