<svg id="container" width="100%" xmlns="http://www.w3.org/2000/svg" style="max-width: 209.59591674804688px;" viewBox="-36.405805587768555 -8 209.59591674804688 296" role="graphics-document document" aria-roledescription="gitGraph"><style>#container{font-family:"trebuchet ms",verdana,arial,sans-serif;font-size:16px;fill:#333;}@keyframes edge-animation-frame{from{stroke-dashoffset:0;}}@keyframes dash{to{stroke-dashoffset:0;}}#container .edge-animation-slow{stroke-dasharray:9,5!important;stroke-dashoffset:900;animation:dash 50s linear infinite;stroke-linecap:round;}#container .edge-animation-fast{stroke-dasharray:9,5!important;stroke-dashoffset:900;animation:dash 20s linear infinite;stroke-linecap:round;}#container .error-icon{fill:#552222;}#container .error-text{fill:#552222;stroke:#552222;}#container .edge-thickness-normal{stroke-width:1px;}#container .edge-thickness-thick{stroke-width:3.5px;}#container .edge-pattern-solid{stroke-dasharray:0;}#container .edge-thickness-invisible{stroke-width:0;fill:none;}#container .edge-pattern-dashed{stroke-dasharray:3;}#container .edge-pattern-dotted{stroke-dasharray:2;}#container .marker{fill:#333333;stroke:#333333;}#container .marker.cross{stroke:#333333;}#container svg{font-family:"trebuchet ms",verdana,arial,sans-serif;font-size:16px;}#container p{margin:0;}#container .commit-id,#container .commit-msg,#container .branch-label{fill:lightgrey;color:lightgrey;font-family:'trebuchet ms',verdana,arial,sans-serif;font-family:var(--mermaid-font-family);}#container .branch-label0{fill:#ffffff;}#container .commit0{stroke:hsl(240, 100%, 46.2745098039%);fill:hsl(240, 100%, 46.2745098039%);}#container .commit-highlight0{stroke:hsl(60, 100%, 3.7254901961%);fill:hsl(60, 100%, 3.7254901961%);}#container .label0{fill:hsl(240, 100%, 46.2745098039%);}#container .arrow0{stroke:hsl(240, 100%, 46.2745098039%);}#container .branch-label1{fill:black;}#container .commit1{stroke:hsl(60, 100%, 43.5294117647%);fill:hsl(60, 100%, 43.5294117647%);}#container .commit-highlight1{stroke:rgb(0, 0, 160.5);fill:rgb(0, 0, 160.5);}#container .label1{fill:hsl(60, 100%, 43.5294117647%);}#container .arrow1{stroke:hsl(60, 100%, 43.5294117647%);}#container .branch-label2{fill:black;}#container .commit2{stroke:hsl(80, 100%, 46.2745098039%);fill:hsl(80, 100%, 46.2745098039%);}#container .commit-highlight2{stroke:rgb(48.8333333334, 0, 146.5000000001);fill:rgb(48.8333333334, 0, 146.5000000001);}#container .label2{fill:hsl(80, 100%, 46.2745098039%);}#container .arrow2{stroke:hsl(80, 100%, 46.2745098039%);}#container .branch-label3{fill:#ffffff;}#container .commit3{stroke:hsl(210, 100%, 46.2745098039%);fill:hsl(210, 100%, 46.2745098039%);}#container .commit-highlight3{stroke:rgb(146.5000000001, 73.2500000001, 0);fill:rgb(146.5000000001, 73.2500000001, 0);}#container .label3{fill:hsl(210, 100%, 46.2745098039%);}#container .arrow3{stroke:hsl(210, 100%, 46.2745098039%);}#container .branch-label4{fill:black;}#container .commit4{stroke:hsl(180, 100%, 46.2745098039%);fill:hsl(180, 100%, 46.2745098039%);}#container .commit-highlight4{stroke:rgb(146.5000000001, 0, 0);fill:rgb(146.5000000001, 0, 0);}#container .label4{fill:hsl(180, 100%, 46.2745098039%);}#container .arrow4{stroke:hsl(180, 100%, 46.2745098039%);}#container .branch-label5{fill:black;}#container .commit5{stroke:hsl(150, 100%, 46.2745098039%);fill:hsl(150, 100%, 46.2745098039%);}#container .commit-highlight5{stroke:rgb(146.5000000001, 0, 73.2500000001);fill:rgb(146.5000000001, 0, 73.2500000001);}#container .label5{fill:hsl(150, 100%, 46.2745098039%);}#container .arrow5{stroke:hsl(150, 100%, 46.2745098039%);}#container .branch-label6{fill:black;}#container .commit6{stroke:hsl(300, 100%, 46.2745098039%);fill:hsl(300, 100%, 46.2745098039%);}#container .commit-highlight6{stroke:rgb(0, 146.5000000001, 0);fill:rgb(0, 146.5000000001, 0);}#container .label6{fill:hsl(300, 100%, 46.2745098039%);}#container .arrow6{stroke:hsl(300, 100%, 46.2745098039%);}#container .branch-label7{fill:black;}#container .commit7{stroke:hsl(0, 100%, 46.2745098039%);fill:hsl(0, 100%, 46.2745098039%);}#container .commit-highlight7{stroke:rgb(0, 146.5000000001, 146.5000000001);fill:rgb(0, 146.5000000001, 146.5000000001);}#container .label7{fill:hsl(0, 100%, 46.2745098039%);}#container .arrow7{stroke:hsl(0, 100%, 46.2745098039%);}#container .branch{stroke-width:1;stroke:#333333;stroke-dasharray:2;}#container .commit-label{font-size:10px;fill:#000021;}#container .commit-label-bkg{font-size:10px;fill:#ffffde;opacity:0.5;}#container .tag-label{font-size:10px;fill:#131300;}#container .tag-label-bkg{fill:#ECECFF;stroke:hsl(240, 60%, 86.2745098039%);}#container .tag-hole{fill:#333;}#container .commit-merge{stroke:#ECECFF;fill:#ECECFF;}#container .commit-reverse{stroke:#ECECFF;fill:#ECECFF;stroke-width:3;}#container .commit-highlight-inner{stroke:#ECECFF;fill:#ECECFF;}#container .arrow{stroke-width:8;stroke-linecap:round;fill:none;}#container .gitTitleText{text-anchor:middle;font-size:18px;fill:#333;}#container :root{--mermaid-font-family:"trebuchet ms",verdana,arial,sans-serif;}</style><g></g><g class="commit-bullets"></g><g class="commit-labels"></g><g><line x1="0" y1="30" x2="0" y2="280" class="branch branch0"></line><rect class="branchLabelBkg label0" rx="4" ry="4" x="-28.15625" y="0" width="54.3125" height="23"></rect><g class="branchLabel"><g class="label branch-label0" transform="translate(-23.15625, 0)"><text><tspan xml:space="preserve" dy="1em" x="0" class="row">main</tspan></text></g></g><line x1="108.15625" y1="30" x2="108.15625" y2="280" class="branch branch1"></line><rect class="branchLabelBkg label1" rx="4" ry="4" x="53.546875" y="0" width="107.21875" height="23"></rect><g class="branchLabel"><g class="label branch-label1" transform="translate(58.546875, 0)"><text><tspan xml:space="preserve" dy="1em" x="0" class="row">new_feature</tspan></text></g></g></g><g class="commit-arrows"><path d="M 0 40 L 0 90" class="arrow arrow0"></path><path d="M 0 90 L 88.15625 90 A 20 20, 0, 0, 1, 108.15625 110 L 108.15625 140" class="arrow arrow1"></path><path d="M 0 90 L 0 190" class="arrow arrow0"></path><path d="M 108.15625 140 L 108.15625 170 A 20 20, 0, 0, 1, 88.15625 190 L 0 190" class="arrow arrow1"></path><path d="M 0 190 L 0 240" class="arrow arrow0"></path></g><g class="commit-bullets"><circle cx="0" cy="40" r="10" class="commit w commit0"></circle><circle cx="0" cy="90" r="10" class="commit x commit0"></circle><circle cx="108.15625" cy="140" r="10" class="commit p commit1"></circle><circle cx="0" cy="190" r="9" class="commit y commit0"></circle><circle cx="0" cy="190" r="6" class="commit commit-merge y commit0"></circle><circle cx="0" cy="240" r="10" class="commit z commit0"></circle></g><g class="commit-labels"><g><rect class="commit-label-bkg" x="-28.171875" y="28" width="11.171875" height="16" transform="rotate(-45, 0, 40)"></rect><text x="-23.171875" y="40" class="commit-label" transform="rotate(-45, 0, 40)">w</text></g><g><rect class="commit-label-bkg" x="-26" y="78" width="9" height="16" transform="rotate(-45, 0, 90)"></rect><text x="-21" y="90" class="commit-label" transform="rotate(-45, 0, 90)">x</text></g><polygon class="tag-label-bkg" points="0,82
        0,78
        10,72
        47.0625,72
        47.0625,88
        10,88" transform="translate(12,12) rotate(45, 0,80)"></polygon><circle cy="80" cx="2" r="1.5" class="tag-hole" transform="translate(12,12) rotate(45, 0,80)"></circle><text y="83" class="tag-label" x="5" transform="translate(14,14) rotate(45, 0,80)">Build N</text><g><rect class="commit-label-bkg" x="81.15625" y="128" width="10" height="16" transform="rotate(-45, 108.15625, 140)"></rect><text x="86.15625" y="140" class="commit-label" transform="rotate(-45, 108.15625, 140)">p</text></g><polygon class="tag-label-bkg" points="108.15625,132
        108.15625,128
        118.15625,122
        163.84375,122
        163.84375,138
        118.15625,138" transform="translate(12,12) rotate(45, 108.15625,130)"></polygon><circle cy="130" cx="110.15625" r="1.5" class="tag-hole" transform="translate(12,12) rotate(45, 108.15625,130)"></circle><text y="133" class="tag-label" x="113.15625" transform="translate(14,14) rotate(45, 108.15625,130)">Build N+1</text><g><rect class="commit-label-bkg" x="-26" y="178" width="9" height="16" transform="rotate(-45, 0, 190)"></rect><text x="-21" y="190" class="commit-label" transform="rotate(-45, 0, 190)">y</text></g><polygon class="tag-label-bkg" points="0,182
        0,178
        10,172
        56.43994140625,172
        56.43994140625,188
        10,188" transform="translate(12,12) rotate(45, 0,180)"></polygon><circle cy="180" cx="2" r="1.5" class="tag-hole" transform="translate(12,12) rotate(45, 0,180)"></circle><text y="183" class="tag-label" x="5" transform="translate(14,14) rotate(45, 0,180)">Build N+2</text><g><rect class="commit-label-bkg" x="-26" y="228" width="9" height="16" transform="rotate(-45, 0, 240)"></rect><text x="-21" y="240" class="commit-label" transform="rotate(-45, 0, 240)">z</text></g></g></svg>