<svg id="container" width="100%" xmlns="http://www.w3.org/2000/svg" style="max-width: 446.9121398925781px;" viewBox="-138.91213989257812 -36.20000076293945 446.9121398925781 254.9512176513672" role="graphics-document document" aria-roledescription="gitGraph"><style>#container{font-family:"trebuchet ms",verdana,arial,sans-serif;font-size:16px;fill:#333;}@keyframes edge-animation-frame{from{stroke-dashoffset:0;}}@keyframes dash{to{stroke-dashoffset:0;}}#container .edge-animation-slow{stroke-dasharray:9,5!important;stroke-dashoffset:900;animation:dash 50s linear infinite;stroke-linecap:round;}#container .edge-animation-fast{stroke-dasharray:9,5!important;stroke-dashoffset:900;animation:dash 20s linear infinite;stroke-linecap:round;}#container .error-icon{fill:#552222;}#container .error-text{fill:#552222;stroke:#552222;}#container .edge-thickness-normal{stroke-width:1px;}#container .edge-thickness-thick{stroke-width:3.5px;}#container .edge-pattern-solid{stroke-dasharray:0;}#container .edge-thickness-invisible{stroke-width:0;fill:none;}#container .edge-pattern-dashed{stroke-dasharray:3;}#container .edge-pattern-dotted{stroke-dasharray:2;}#container .marker{fill:#333333;stroke:#333333;}#container .marker.cross{stroke:#333333;}#container svg{font-family:"trebuchet ms",verdana,arial,sans-serif;font-size:16px;}#container p{margin:0;}#container .commit-id,#container .commit-msg,#container .branch-label{fill:lightgrey;color:lightgrey;font-family:'trebuchet ms',verdana,arial,sans-serif;font-family:var(--mermaid-font-family);}#container .branch-label0{fill:#ffffff;}#container .commit0{stroke:hsl(240, 100%, 46.2745098039%);fill:hsl(240, 100%, 46.2745098039%);}#container .commit-highlight0{stroke:hsl(60, 100%, 3.7254901961%);fill:hsl(60, 100%, 3.7254901961%);}#container .label0{fill:hsl(240, 100%, 46.2745098039%);}#container .arrow0{stroke:hsl(240, 100%, 46.2745098039%);}#container .branch-label1{fill:black;}#container .commit1{stroke:hsl(60, 100%, 43.5294117647%);fill:hsl(60, 100%, 43.5294117647%);}#container .commit-highlight1{stroke:rgb(0, 0, 160.5);fill:rgb(0, 0, 160.5);}#container .label1{fill:hsl(60, 100%, 43.5294117647%);}#container .arrow1{stroke:hsl(60, 100%, 43.5294117647%);}#container .branch-label2{fill:black;}#container .commit2{stroke:hsl(80, 100%, 46.2745098039%);fill:hsl(80, 100%, 46.2745098039%);}#container .commit-highlight2{stroke:rgb(48.8333333334, 0, 146.5000000001);fill:rgb(48.8333333334, 0, 146.5000000001);}#container .label2{fill:hsl(80, 100%, 46.2745098039%);}#container .arrow2{stroke:hsl(80, 100%, 46.2745098039%);}#container .branch-label3{fill:#ffffff;}#container .commit3{stroke:hsl(210, 100%, 46.2745098039%);fill:hsl(210, 100%, 46.2745098039%);}#container .commit-highlight3{stroke:rgb(146.5000000001, 73.2500000001, 0);fill:rgb(146.5000000001, 73.2500000001, 0);}#container .label3{fill:hsl(210, 100%, 46.2745098039%);}#container .arrow3{stroke:hsl(210, 100%, 46.2745098039%);}#container .branch-label4{fill:black;}#container .commit4{stroke:hsl(180, 100%, 46.2745098039%);fill:hsl(180, 100%, 46.2745098039%);}#container .commit-highlight4{stroke:rgb(146.5000000001, 0, 0);fill:rgb(146.5000000001, 0, 0);}#container .label4{fill:hsl(180, 100%, 46.2745098039%);}#container .arrow4{stroke:hsl(180, 100%, 46.2745098039%);}#container .branch-label5{fill:black;}#container .commit5{stroke:hsl(150, 100%, 46.2745098039%);fill:hsl(150, 100%, 46.2745098039%);}#container .commit-highlight5{stroke:rgb(146.5000000001, 0, 73.2500000001);fill:rgb(146.5000000001, 0, 73.2500000001);}#container .label5{fill:hsl(150, 100%, 46.2745098039%);}#container .arrow5{stroke:hsl(150, 100%, 46.2745098039%);}#container .branch-label6{fill:black;}#container .commit6{stroke:hsl(300, 100%, 46.2745098039%);fill:hsl(300, 100%, 46.2745098039%);}#container .commit-highlight6{stroke:rgb(0, 146.5000000001, 0);fill:rgb(0, 146.5000000001, 0);}#container .label6{fill:hsl(300, 100%, 46.2745098039%);}#container .arrow6{stroke:hsl(300, 100%, 46.2745098039%);}#container .branch-label7{fill:black;}#container .commit7{stroke:hsl(0, 100%, 46.2745098039%);fill:hsl(0, 100%, 46.2745098039%);}#container .commit-highlight7{stroke:rgb(0, 146.5000000001, 146.5000000001);fill:rgb(0, 146.5000000001, 146.5000000001);}#container .label7{fill:hsl(0, 100%, 46.2745098039%);}#container .arrow7{stroke:hsl(0, 100%, 46.2745098039%);}#container .branch{stroke-width:1;stroke:#333333;stroke-dasharray:2;}#container .commit-label{font-size:10px;fill:#000021;}#container .commit-label-bkg{font-size:10px;fill:#ffffde;opacity:0.5;}#container .tag-label{font-size:12px;fill:#131300;}#container .tag-label-bkg{fill:#ECECFF;stroke:hsl(240, 60%, 86.2745098039%);}#container .tag-hole{fill:#333;}#container .commit-merge{stroke:#ECECFF;fill:#ECECFF;}#container .commit-reverse{stroke:#ECECFF;fill:#ECECFF;stroke-width:3;}#container .commit-highlight-inner{stroke:#ECECFF;fill:#ECECFF;}#container .arrow{stroke-width:8;stroke-linecap:round;fill:none;}#container .gitTitleText{text-anchor:middle;font-size:18px;fill:#333;}#container :root{--mermaid-font-family:"trebuchet ms",verdana,arial,sans-serif;}</style><g></g><g class="commit-bullets"></g><g class="commit-labels"></g><g><line x1="0" y1="0" x2="300" y2="0" class="branch branch0"></line><rect class="branchLabelBkg label0" rx="4" ry="4" x="-70.3125" y="-1.5" width="54.3125" height="23" transform="translate(-19, -9.5)"></rect><g class="branchLabel"><g class="label branch-label0" transform="translate(-80.3125, -10.5)"><text><tspan xml:space="preserve" dy="1em" x="0" class="row">main</tspan></text></g></g><line x1="0" y1="90" x2="300" y2="90" class="branch branch1"></line><rect class="branchLabelBkg label1" rx="4" ry="4" x="-85.96875" y="-1.5" width="69.96875" height="23" transform="translate(-19, 80.5)"></rect><g class="branchLabel"><g class="label branch-label1" transform="translate(-95.96875, 79.5)"><text><tspan xml:space="preserve" dy="1em" x="0" class="row">feature</tspan></text></g></g><line x1="0" y1="180" x2="300" y2="180" class="branch branch2"></line><rect class="branchLabelBkg label2" rx="4" ry="4" x="-111.91213989257812" y="-1.5" width="95.91213989257812" height="23" transform="translate(-19, 170.5)"></rect><g class="branchLabel"><g class="label branch-label2" transform="translate(-121.91213989257812, 169.5)"><text><tspan xml:space="preserve" dy="1em" x="0" class="row">ephemeral</tspan></text></g></g></g><g class="commit-arrows"><path d="M 10 0 L 10 70 A 20 20, 0, 0, 0, 30 90 L 60 90" class="arrow arrow1"></path><path d="M 10 0 L 110 0" class="arrow arrow0"></path><path d="M 110 0 L 160 0" class="arrow arrow0"></path><path d="M 60 90 L 60 160 A 20 20, 0, 0, 0, 80 180 L 210 180" class="arrow arrow2"></path><path d="M 160 0 L 260 0" class="arrow arrow0"></path><path d="M 210 180 L 240 180 A 20 20, 0, 0, 0, 260 160 L 260 0" class="arrow arrow2"></path></g><g class="commit-bullets"><circle cx="10" cy="0" r="10" class="commit A commit0"></circle><circle cx="60" cy="90" r="10" class="commit P commit1"></circle><circle cx="110" cy="0" r="10" class="commit B commit0"></circle><circle cx="160" cy="0" r="10" class="commit C commit0"></circle><rect x="200" y="170" width="20" height="20" class="commit P' commit-highlight2 commit-highlight-outer"></rect><rect x="204" y="174" width="12" height="12" class="commit P' commit2 commit-highlight-inner"></rect><circle cx="260" cy="0" r="9" class="commit D commit0"></circle><circle cx="260" cy="0" r="6" class="commit commit-merge D commit0"></circle></g><g class="commit-labels"><g transform="translate(-13.58, 12.04) rotate(-45, 0, 0)"><rect class="commit-label-bkg" x="5" y="13.5" width="10" height="16"></rect><text x="7" y="25" class="commit-label">A</text></g><g transform="translate(-13.58, 12.04) rotate(-45, 50, 90)"><rect class="commit-label-bkg" x="55" y="103.5" width="10" height="16"></rect><text x="57" y="115" class="commit-label">P</text></g><polygon class="tag-label-bkg" points="34.68993377685547,72.8  
      34.68993377685547,68.8
      42.68993377685547,61.8
      77.31006622314453,61.8
      77.31006622314453,79.8
      42.68993377685547,79.8"></polygon><circle cy="70.8" cx="38.68993377685547" r="1.5" class="tag-hole"></circle><text y="74" class="tag-label" x="46.68993377685547">an. A</text><g transform="translate(-13.615625000000001, 12.071875) rotate(-45, 100, 0)"><rect class="commit-label-bkg" x="104.953125" y="13.5" width="10.09375" height="16"></rect><text x="106.953125" y="25" class="commit-label">B</text></g><polygon class="tag-label-bkg" points="84.68993377685547,-17.2  
      84.68993377685547,-21.2
      92.68993377685547,-28.2
      127.31006622314453,-28.2
      127.31006622314453,-10.2
      92.68993377685547,-10.2"></polygon><circle cy="-19.2" cx="88.68993377685547" r="1.5" class="tag-hole"></circle><text y="-16" class="tag-label" x="96.68993377685547">an. A</text><g transform="translate(-13.58, 12.04) rotate(-45, 150, 0)"><rect class="commit-label-bkg" x="155" y="13.5" width="10" height="16"></rect><text x="157" y="25" class="commit-label">C</text></g><polygon class="tag-label-bkg" points="134.5390625,-17.2  
      134.5390625,-21.2
      142.5390625,-28.2
      177.4609375,-28.2
      177.4609375,-10.2
      142.5390625,-10.2"></polygon><circle cy="-19.2" cx="138.5390625" r="1.5" class="tag-hole"></circle><text y="-16" class="tag-label" x="146.5390625">an. B</text><g transform="translate(-14.34, 12.72) rotate(-45, 200, 180)"><rect class="commit-label-bkg" x="204" y="193.5" width="12" height="16"></rect><text x="206" y="205" class="commit-label">P'</text></g><polygon class="tag-label-bkg" points="148.92768096923828,162.8  
      148.92768096923828,158.8
      156.92768096923828,151.8
      263.0723190307617,151.8
      263.0723190307617,169.8
      156.92768096923828,169.8"></polygon><circle cy="160.8" cx="152.92768096923828" r="1.5" class="tag-hole"></circle><text y="164" class="tag-label" x="160.92768096923828">ephemeral from D</text><g transform="translate(-13.7521875, 12.1940625) rotate(-45, 250, 0)"><rect class="commit-label-bkg" x="254.7734375" y="13.5" width="10.453125" height="16"></rect><text x="256.7734375" y="25" class="commit-label">D</text></g><polygon class="tag-label-bkg" points="234.68993377685547,-17.2  
      234.68993377685547,-21.2
      242.68993377685547,-28.2
      277.31006622314453,-28.2
      277.31006622314453,-10.2
      242.68993377685547,-10.2"></polygon><circle cy="-19.2" cx="238.68993377685547" r="1.5" class="tag-hole"></circle><text y="-16" class="tag-label" x="246.68993377685547">an. C</text></g></svg>